Coordinates
version=1
nRows=26
nColumns=32
inDegrees=no

Units are S.I. units (second, meters, Newtons, ...)
If the header above contains a line with 'inDegrees', this indicates whether rotational values are in degrees (yes) or radians (no).

endheader
time	pelvis_tilt	pelvis_list	pelvis_rotation	pelvis_tx	pelvis_ty	pelvis_tz	hip_flexion_r	hip_adduction_r	hip_rotation_r	knee_angle_r	ankle_angle_r	subtalar_angle_r	mtp_angle_r	hip_flexion_l	hip_adduction_l	hip_rotation_l	knee_angle_l	ankle_angle_l	subtalar_angle_l	mtp_angle_l	lumbar_extension	lumbar_bending	lumbar_rotation	arm_flex_r	arm_add_r	arm_rot_r	elbow_flex_r	arm_flex_l	arm_add_l	arm_rot_l	elbow_flex_l
0.895	-0.153582	0.0301782	-0.0440775	0.908654	1.00752	-0.294615	1.0054	-0.0258695	-0.102089	0.811117	-0.0722198	-0.248315	0.0137951	-0.408001	0.0104313	-0.213155	0.436834	-0.446668	0.211129	-0.0453102	-0.059268	-0.0170057	-0.313216	-1.00346	-0.274756	-0.207968	1.83688	-0.438635	-0.283361	-0.0188954	2.42952
0.9	-0.153611	0.0378954	-0.0437309	0.909081	1.00838	-0.294987	0.984008	-0.0278373	-0.111232	0.731496	-0.0709867	-0.204251	0.0138019	-0.399968	0.015459	-0.188393	0.496374	-0.434588	0.204162	-0.0452798	-0.0576605	-0.0230674	-0.316147	-1.00699	-0.26918	-0.209085	1.83919	-0.44825	-0.285803	-0.0139182	2.43221
0.905	-0.153359	0.045576	-0.0435963	0.909344	1.00906	-0.295257	0.961585	-0.0292734	-0.121307	0.65464	-0.0728059	-0.160755	0.0138086	-0.389042	0.0197932	-0.169154	0.561471	-0.423913	0.196657	-0.0452495	-0.0571555	-0.0294117	-0.318364	-1.00814	-0.263341	-0.209264	1.83998	-0.458369	-0.288181	-0.00958582	2.43325
0.91	-0.152795	0.0531637	-0.0438006	0.909445	1.00957	-0.295456	0.938603	-0.030204	-0.132295	0.581871	-0.0773618	-0.118202	0.0138154	-0.37565	0.0236158	-0.155167	0.630807	-0.415127	0.187774	-0.0452191	-0.0577712	-0.0358804	-0.319696	-1.00688	-0.257352	-0.208572	1.83936	-0.468835	-0.290321	-0.00589981	2.43255
0.915	-0.151968	0.0605304	-0.0443946	0.909387	1.00991	-0.295623	0.915615	-0.0306785	-0.144155	0.514492	-0.0840725	-0.0770182	0.0138221	-0.360051	0.0269933	-0.145735	0.70333	-0.407863	0.176872	-0.0451889	-0.0593996	-0.0422139	-0.320006	-1.00331	-0.25134	-0.207135	1.8375	-0.479434	-0.292069	-0.00277793	2.43001
0.92	-0.150993	0.0674924	-0.0453604	0.909175	1.01006	-0.295799	0.893205	-0.0307675	-0.156829	0.453709	-0.0922347	-0.0377433	0.0138289	-0.342373	0.0298753	-0.139969	0.778198	-0.401293	0.163538	-0.0451586	-0.0618172	-0.0480834	-0.319182	-0.99758	-0.245434	-0.20513	1.8346	-0.489917	-0.293301	-5.90612e-05	2.42553
0.925	-0.150022	0.0738373	-0.0466291	0.908822	1.01003	-0.296021	0.871933	-0.03056	-0.170254	0.400537	-0.101165	-0.00104579	0.0138356	-0.32268	0.0321156	-0.136982	0.854708	-0.394516	0.147555	-0.0451284	-0.0647309	-0.0531368	-0.317138	-0.989892	-0.23975	-0.202751	1.83091	-0.50003	-0.29394	0.00247042	2.41902
0.93	-0.149195	0.0793531	-0.0481059	0.908347	1.00981	-0.296316	0.85224	-0.0301556	-0.184359	0.355727	-0.110314	0.0323248	0.0138423	-0.30105	0.0335004	-0.136007	0.932222	-0.386836	0.128873	-0.0450983	-0.0678455	-0.0570462	-0.313818	-0.98049	-0.234389	-0.200184	1.82666	-0.509559	-0.293961	0.0050312	2.41045
0.935	-0.148602	0.083851	-0.0496951	0.907772	1.0094	-0.296699	0.834381	-0.0296465	-0.199065	0.319698	-0.119326	0.0616343	0.0138491	-0.277622	0.0337818	-0.136448	1.01013	-0.377892	0.107576	-0.0450682	-0.0709342	-0.0595452	-0.309209	-0.969604	-0.229445	-0.197563	1.82208	-0.518368	-0.293379	0.00779806	2.39983
0.94	-0.148254	0.0871792	-0.051323	0.90712	1.0088	-0.297169	0.818369	-0.0290903	-0.21423	0.292492	-0.128056	0.0862647	0.0138558	-0.25262	0.0327091	-0.137877	1.08786	-0.367654	0.0838576	-0.0450381	-0.073885	-0.0604506	-0.303343	-0.957422	-0.225014	-0.194948	1.81736	-0.52642	-0.29223	0.0108604	2.38728
0.945	-0.148085	0.0892241	-0.0529522	0.906413	1.00804	-0.297714	0.803978	-0.0284781	-0.229589	0.273766	-0.13653	0.105778	0.0138626	-0.226331	0.0300479	-0.139999	1.1649	-0.356315	0.058028	-0.0450081	-0.0767137	-0.0596605	-0.296298	-0.944068	-0.221203	-0.192322	1.81263	-0.533777	-0.290553	0.0142058	2.37296
0.95	-0.14797	0.0899026	-0.0545795	0.905669	1.00712	-0.298312	0.790783	-0.0277163	-0.244693	0.262849	-0.144862	0.119926	0.0138693	-0.199067	0.0255898	-0.142597	1.24081	-0.344156	0.0305514	-0.0449781	-0.0795453	-0.0571367	-0.288181	-0.929605	-0.218121	-0.189608	1.80796	-0.540575	-0.288381	0.0177273	2.3571
0.955	-0.14775	0.0891589	-0.0562246	0.904904	1.00606	-0.298933	0.77825	-0.0266317	-0.258892	0.258864	-0.153143	0.128617	0.013876	-0.171127	0.0191632	-0.145486	1.31529	-0.331427	0.00207409	-0.0449481	-0.0825762	-0.05289	-0.279114	-0.914057	-0.215872	-0.186697	1.8034	-0.546987	-0.285733	0.021251	2.33994
0.96	-0.147268	0.0869688	-0.0579136	0.904128	1.00489	-0.299545	0.765843	-0.0249982	-0.271361	0.260884	-0.161304	0.131864	0.0138828	-0.14275	0.0106514	-0.148467	1.3881	-0.318281	-0.0265842	-0.0449182	-0.0860271	-0.0469722	-0.26922	-0.897427	-0.21454	-0.183481	1.79897	-0.553187	-0.282625	0.0245734	2.32168
0.965	-0.146393	0.083349	-0.0596672	0.903348	1.0036	-0.30012	0.753126	-0.0225723	-0.281192	0.268079	-0.168997	0.129729	0.0138895	-0.114085	1.34124e-05	-0.151305	1.45912	-0.304764	-0.054485	-0.0448883	-0.0900945	-0.0394757	-0.25861	-0.879714	-0.214177	-0.179871	1.79467	-0.559318	-0.279071	0.0274957	2.30247
0.97	-0.145054	0.078364	-0.0614934	0.902566	1.0022	-0.300638	0.739844	-0.0191266	-0.28751	0.279821	-0.175491	0.122269	0.0138962	-0.0851553	-0.0126967	-0.153713	1.52827	-0.290836	-0.0806604	-0.0448584	-0.0949042	-0.0305337	-0.247376	-0.860924	-0.214811	-0.175805	1.79051	-0.565481	-0.275088	0.0298471	2.28239
0.975	-0.143269	0.0721249	-0.0633865	0.901779	1.00069	-0.301084	0.72598	-0.0144714	-0.289611	0.295736	-0.179626	0.109521	0.013903	-0.0558297	-0.0273212	-0.155355	1.59549	-0.276395	-0.104192	-0.0448286	-0.100473	-0.0203121	-0.235593	-0.841067	-0.216446	-0.171249	1.78651	-0.571731	-0.2707	0.0315013	2.26149
0.98	-0.14116	0.0647836	-0.0653321	0.90098	0.999042	-0.301451	0.711752	-0.00846874	-0.287082	0.315689	-0.179833	0.0915288	0.0139097	-0.0258083	-0.0436065	-0.155863	1.66075	-0.261314	-0.124272	-0.0447988	-0.106688	-0.00900298	-0.22331	-0.820159	-0.219073	-0.166191	1.78268	-0.578082	-0.265937	0.0323891	2.23975
0.985	-0.138946	0.05653	-0.0673158	0.900156	0.997217	-0.301739	0.697572	-0.00104991	-0.279889	0.339711	-0.174261	0.0684369	0.0139164	0.00535567	-0.061219	-0.154878	1.72404	-0.245473	-0.140262	-0.0447691	-0.11332	0.00317818	-0.210552	-0.798217	-0.222667	-0.160639	1.77906	-0.584515	-0.260847	0.0325087	2.21719
0.99	-0.136898	0.04759	-0.0693279	0.899291	0.995173	-0.301955	0.683938	0.00775635	-0.268454	0.367895	-0.16103	0.0406434	0.0139231	0.0381939	-0.079759	-0.152085	1.78527	-0.228789	-0.151741	-0.0447394	-0.120068	0.0159888	-0.197319	-0.77526	-0.227191	-0.154611	1.77569	-0.590992	-0.255502	0.031924	2.19383
0.995	-0.135279	0.0382238	-0.0713604	0.89837	0.992865	-0.302112	0.6713	0.0177956	-0.25366	0.400247	-0.138629	0.00892346	0.0139298	0.0732284	-0.0987689	-0.147237	1.84431	-0.211229	-0.158528	-0.0447097	-0.126637	0.0291536	-0.1836	-0.751308	-0.232591	-0.148129	1.77266	-0.597467	-0.249997	0.0307443	2.16981
1	-0.134277	0.0287191	-0.0734004	0.897365	0.990275	-0.302228	0.659916	0.0287787	-0.23675	0.436544	-0.10638	-0.0255597	0.0139365	0.110865	-0.117748	-0.140162	1.90095	-0.192814	-0.160668	-0.04468	-0.132815	0.0423663	-0.169395	-0.726392	-0.238789	-0.141219	1.77007	-0.603901	-0.244455	0.029092	2.14536
1.005	-0.133952	0.0193674	-0.0754237	0.896257	0.987416	-0.302327	0.649759	0.0403183	-0.219118	0.476218	-0.0648048	-0.0614135	0.0139433	0.151316	-0.136193	-0.130784	1.95486	-0.173622	-0.158402	-0.0446504	-0.13852	0.0553087	-0.154712	-0.700561	-0.245674	-0.133913	1.76807	-0.610261	-0.239022	0.0270758	2.12078
1.01	-0.134236	0.0104159	-0.0774049	0.895031	0.984336	-0.302427	0.640512	0.0520212	-0.201995	0.518335	-0.0157371	-0.0973118	0.01395	0.194576	-0.153669	-0.119134	2.00559	-0.153777	-0.15212	-0.0446208	-0.143798	0.0676888	-0.139553	-0.673901	-0.253089	-0.126266	1.76683	-0.616517	-0.233863	0.0247834	2.09646
1.015	-0.13497	0.00203129	-0.0793346	0.893679	0.981114	-0.302537	0.631633	0.0635731	-0.186176	0.56167	0.0379553	-0.132176	0.0139567	0.240447	-0.169869	-0.105377	2.05262	-0.133444	-0.142372	-0.0445913	-0.14878	0.0792706	-0.123888	-0.646545	-0.26083	-0.118369	1.76653	-0.622631	-0.229162	0.0222882	2.07279
1.02	-0.135969	-0.00569207	-0.0812245	0.892211	0.977848	-0.302653	0.622472	0.0747524	-0.171937	0.604863	0.0929724	-0.165143	0.0139634	0.288603	-0.184619	-0.0898294	2.09537	-0.112838	-0.129895	-0.0445617	-0.153607	0.0898703	-0.107657	-0.618691	-0.268648	-0.110353	1.76734	-0.62857	-0.225107	0.0196554	2.05015
